<svg xmlns="http://www.w3.org/2000/svg" version="1.1" xmlns:xlink="http://www.w3.org/1999/xlink" width="1000" height="1000"><g clip-path="url(#SvgjsClipPath1001)"><rect width="1000" height="1000" fill="#ffffff"></rect><g transform="matrix(3.5,0,0,3.5,150,150)"><svg xmlns="http://www.w3.org/2000/svg" version="1.1" xmlns:xlink="http://www.w3.org/1999/xlink" width="200" height="200"><svg xmlns="http://www.w3.org/2000/svg" version="1.1" xmlns:xlink="http://www.w3.org/1999/xlink" viewBox="0 0 200 200"><rect width="200" height="200" fill="url('#gradient')"></rect><defs><linearGradient id="gradient" gradientTransform="rotate(45 0.5 0.5)"><stop offset="0%" stop-color="#ffffff"></stop><stop offset="100%" stop-color="#ffffff"></stop></linearGradient><clipPath id="SvgjsClipPath1001"><rect width="1000" height="1000" x="0" y="0" rx="350" ry="350"></rect></clipPath></defs><g><g fill="#137d70" transform="matrix(7.560295324036095,0,0,7.560295324036095,1.9016539533183305,153.72027027421157)" stroke="#5b8d84" stroke-width="0"><path d="M8.87 0L6.36-5.02L4.50-5.02L4.50 0L1.07 0L1.07-14.22L6.67-14.22Q9.20-14.22 10.63-13.10Q12.05-11.97 12.05-9.92L12.05-9.92Q12.05-8.44 11.45-7.46Q10.85-6.48 9.57-5.88L9.57-5.88L12.54-0.15L12.54 0L8.87 0ZM4.50-11.57L4.50-7.67L6.67-7.67Q7.65-7.67 8.14-8.18Q8.63-8.69 8.63-9.61Q8.63-10.53 8.13-11.05Q7.64-11.57 6.67-11.57L6.67-11.57L4.50-11.57ZM21.46-3.78L21.46-3.78Q21.46-4.53 20.92-4.95Q20.39-5.37 19.05-5.82Q17.71-6.27 16.87-6.69L16.87-6.69Q14.10-8.05 14.10-10.42L14.10-10.42Q14.10-11.60 14.79-12.50Q15.48-13.41 16.74-13.91Q18.00-14.41 19.57-14.41L19.57-14.41Q21.10-14.41 22.32-13.87Q23.54-13.32 24.21-12.31Q24.88-11.30 24.88-10L24.88-10L21.46-10Q21.46-10.87 20.93-11.35Q20.40-11.83 19.49-11.83L19.49-11.83Q18.57-11.83 18.04-11.42Q17.51-11.02 17.51-10.39L17.51-10.39Q17.51-9.84 18.10-9.40Q18.68-8.96 20.16-8.48Q21.63-8.01 22.58-7.46L22.58-7.46Q24.88-6.13 24.88-3.80L24.88-3.80Q24.88-1.93 23.48-0.87Q22.07 0.20 19.62 0.20L19.62 0.20Q17.89 0.20 16.49-0.42Q15.09-1.04 14.38-2.12Q13.67-3.20 13.67-4.61L13.67-4.61L17.11-4.61Q17.11-3.47 17.70-2.92Q18.29-2.38 19.62-2.38L19.62-2.38Q20.47-2.38 20.96-2.75Q21.46-3.12 21.46-3.78Z"></path></g></g></svg></svg></g></g></svg>